<?xml version="1.0" encoding="UTF-8" standalone="no"?>
<!-- Created with Inkscape (http://www.inkscape.org/) -->

<svg
   version="1.1"
   id="svg132"
   width="2505.3555"
   height="1002.1274"
   viewBox="0 0 2505.3555 1002.1274"
   sodipodi:docname="Monogram_Horizontal.ai"
   inkscape:export-filename="..\..\..\..\..\Users\franc\WebstormProjects\programmino\src\assets\logo_black.svg"
   inkscape:export-xdpi="96"
   inkscape:export-ydpi="96"
   xmlns:inkscape="http://www.inkscape.org/namespaces/inkscape"
   xmlns:sodipodi="http://sodipodi.sourceforge.net/DTD/sodipodi-0.dtd"
   xmlns="http://www.w3.org/2000/svg"
   xmlns:svg="http://www.w3.org/2000/svg">
  <defs
     id="defs136">
    <clipPath
       clipPathUnits="userSpaceOnUse"
       id="clipPath148">
      <path
         d="M 0,751.596 H 1879.017 V 0 H 0 Z"
         id="path146" />
    </clipPath>
  </defs>
  <sodipodi:namedview
     id="namedview134"
     pagecolor="#ffffff"
     bordercolor="#000000"
     borderopacity="0.25"
     inkscape:showpageshadow="2"
     inkscape:pageopacity="0.0"
     inkscape:pagecheckerboard="0"
     inkscape:deskcolor="#d1d1d1"
     showgrid="false" />
  <g
     id="g140"
     inkscape:groupmode="layer"
     inkscape:label="Page 1"
     transform="matrix(1.3333333,0,0,-1.3333333,0,1002.1274)">
    <g
       id="g142">
      <g
         id="g144"
         clip-path="url(#clipPath148)">
        <g
           id="g150"
           transform="translate(38.6535,528.2646)">
          <path
             d="m 0,0 c 0,56.907 54.759,96.634 109.518,96.634 65.497,0 106.297,-48.317 132.066,-136.361 h 2.148 l -7.516,112.739 c -32.211,20.401 -76.233,35.433 -122.403,35.433 -89.118,0 -152.467,-55.833 -152.467,-127.772 0,-73.012 62.276,-107.371 124.551,-137.434 70.864,-34.359 150.319,-64.423 150.319,-142.804 0,-67.643 -56.907,-100.928 -111.666,-100.928 -75.159,0 -126.697,48.317 -159.982,141.729 h -2.148 l 15.032,-122.403 c 25.769,-12.884 76.233,-31.137 138.509,-31.137 96.633,0 159.982,54.759 159.982,134.213 0,85.897 -80.528,118.108 -162.13,158.909 C 60.128,-92.339 0,-57.98 0,0"
             style="fill:#366b58;fill-opacity:1;fill-rule:nonzero;stroke:none"
             id="path152" />
        </g>
        <g
           id="g154"
           transform="translate(1540.7987,623.8247)">
          <path
             d="m 0,0 c 22.548,-21.474 30.064,-35.432 30.064,-98.781 v -298.491 c 0,-63.349 -7.516,-77.307 -30.064,-98.781 v -2.148 h 108.445 v 2.148 c -22.548,21.474 -35.433,35.432 -35.433,98.781 v 155.688 h 75.16 c 73.012,0 90.191,-32.212 105.223,-78.381 h 2.148 v 148.172 h -2.148 c -15.032,-45.096 -31.137,-57.981 -105.223,-57.981 H 73.012 V -95.56 c 0,48.317 -3.221,67.644 -23.621,84.823 h 126.697 c 83.75,0 130.993,-51.538 159.983,-120.255 h 2.147 L 313.523,2.147 H 0 Z"
             style="fill:#366b58;fill-opacity:1;fill-rule:nonzero;stroke:none"
             id="path156" />
        </g>
        <g
           id="g158"
           transform="translate(602.3774,579.8026)">
          <path
             d="m 0,0 h 2.147 l 211.521,-133.14 v -1.074 l -5.369,-8.589 h -1.073 l -220.111,114.887 -1.073,2.147 z m 648.52,-409.083 h -2.147 l -209.374,134.214 v 1.073 l 5.369,8.59 h 1.074 l 217.962,-115.961 1.074,-2.147 z m 13.958,383.314 -1.074,-2.147 -219.036,-113.814 h -1.074 l -5.368,8.59 v 1.074 L 646.373,0 h 2.147 z m -676.436,-356.471 1.073,2.147 220.111,114.887 h 1.073 l 4.295,-8.59 v -1.073 L 2.147,-408.009 H 0 Z m 517.527,-159.983 -2.147,1.074 -114.887,219.036 v 1.074 l 8.59,5.369 h 1.073 l 133.14,-210.447 v -2.148 z m -179.309,497.127 70.865,215.816 1.073,1.073 30.064,-7.516 1.074,-1.073 -102.002,-242.658 h -2.148 l -102.002,242.658 1.074,1.073 30.063,7.516 1.074,-1.073 z m -178.236,179.31 2.148,-1.074 114.887,-220.11 v -1.074 l -8.59,-5.369 h -1.074 l -133.14,210.447 v 2.148 z m 178.236,-497.128 -70.865,-215.815 -1.074,-1.074 -30.063,7.516 -1.074,1.074 102.002,242.658 h 2.148 l 102.002,-242.658 -1.074,-1.074 -30.064,-7.516 -1.073,1.074 z m -158.909,158.909 -215.815,70.865 -1.074,1.074 7.516,30.064 1.074,1.073 242.658,-102.002 v -2.147 l -242.658,-102.003 -1.074,1.074 -7.516,30.064 1.074,1.074 z m 317.818,0 215.815,-70.864 1.074,-1.074 -7.516,-30.064 -1.074,-1.074 -242.658,102.003 v 2.147 l 242.658,102.002 1.074,-1.073 7.516,-30.064 -1.074,-1.074 z"
             style="fill:#366b58;fill-opacity:1;fill-rule:nonzero;stroke:none"
             id="path160" />
        </g>
      </g>
    </g>
  </g>
</svg>
